@startuml

title leekwars - files dependencies

allowmixing

package engine {
  package round {
    class Round
    class LeekRound
    class CellRound
    class ToolRound
    class Action
  }
  class Board
  class Cell 
  class Leek
  class RelativeCell
  class Effect
  class Tool
  frame const
  frame effectfunctions
  class EffectResult
  class InterCellInfo
  class Strategy
  class Talk
}

frame main

package utils {
  class GameDebug
  class Objects
  class Chain
  frame functions
}

main -> GameDebug
main --> Strategy
Strategy --> Board
Strategy --> Talk
Strategy --> Action
Strategy --> effectfunctions
Strategy --> EffectResult
Strategy --> Round 
Strategy --> const
Strategy --> CellRound
Strategy --> LeekRound
Strategy --> Cell
Strategy --> InterCellInfo
Strategy --> ToolRound
Strategy --> Tool
Strategy --> Leek
Strategy --> Effect
Strategy --> RelativeCell
GameDebug --> Objects
GameDebug --> Chain
GameDebug --> functions

@enduml
